<svg width="45" height="46" viewBox="0 0 45 46" fill="none" xmlns="http://www.w3.org/2000/svg">
<g id="streamline:bank-solid" clip-path="url(#clip0_545_155)">
<path id="Vector" fill-rule="evenodd" clip-rule="evenodd" d="M22.5 0.759277C21.7803 0.759861 21.0748 0.960148 20.4621 1.33785L1.46571 13.7771C0.115714 14.6675 -0.295714 16.2007 0.225 17.5089C0.726429 18.7689 1.99286 19.6207 3.50357 19.6207H41.4964C43.0071 19.6207 44.2736 18.7689 44.775 17.5089C45.2957 16.2007 44.8843 14.6675 43.5375 13.7803L43.5343 13.7771L24.5379 1.33785C23.9252 0.960148 23.2197 0.759861 22.5 0.759277ZM0 38.7232C0 36.7946 1.83857 35.8657 3.21429 35.8657H3.39107C3.38475 35.8081 3.38153 35.7501 3.38143 35.6921V25.3711C3.38143 24.9448 3.55075 24.536 3.85215 24.2346C4.15355 23.9332 4.56233 23.7639 4.98857 23.7639H10.3371C10.7634 23.7639 11.1722 23.9332 11.4736 24.2346C11.775 24.536 11.9443 24.9448 11.9443 25.3711V35.6921C11.9442 35.7501 11.9409 35.8081 11.9346 35.8657H18.2282C18.2219 35.8081 18.2187 35.7501 18.2186 35.6921V25.3711C18.2186 24.9448 18.3879 24.536 18.6893 24.2346C18.9907 23.9332 19.3995 23.7639 19.8257 23.7639H25.1743C25.3853 23.7639 25.5943 23.8055 25.7893 23.8863C25.9843 23.967 26.1615 24.0854 26.3107 24.2346C26.4599 24.3839 26.5783 24.561 26.6591 24.756C26.7399 24.951 26.7814 25.16 26.7814 25.3711V35.6921C26.7813 35.7501 26.7781 35.8081 26.7718 35.8657H33.0654C33.0591 35.8081 33.0558 35.7501 33.0557 35.6921V25.3711C33.0557 24.9448 33.225 24.536 33.5264 24.2346C33.8278 23.9332 34.2366 23.7639 34.6629 23.7639H40.0114C40.4377 23.7639 40.8465 23.9332 41.1479 24.2346C41.4492 24.536 41.6186 24.9448 41.6186 25.3711V35.6921C41.6184 35.7501 41.6152 35.8081 41.6089 35.8657H41.7857C43.1614 35.8657 45 36.7946 45 38.7264V42.4775C45 44.4061 43.1614 45.335 41.7857 45.335H3.21429C1.83857 45.335 0 44.4061 0 42.4743V38.7232Z" fill="white"/>
</g>
<defs>
<clipPath id="clip0_545_155">
<rect width="45" height="45" fill="white" transform="translate(0 0.547119)"/>
</clipPath>
</defs>
</svg>
