<svg width="45" height="45" viewBox="0 0 45 45" fill="none" xmlns="http://www.w3.org/2000/svg">
<g id="tabler:chart-pie-filled">
<g id="Group">
<path id="Vector" d="M18.7202 5.02425C19.612 4.91914 20.5107 5.15474 21.2363 5.68389C21.9619 6.21304 22.4608 6.99669 22.6333 7.878L22.6802 8.19113L22.6896 8.38613V21.5111C22.6896 21.9704 22.8582 22.4136 23.1634 22.7568C23.4686 23.1 23.8891 23.3193 24.3452 23.373L24.5646 23.3861H37.3146C38.3091 23.3861 39.263 23.7812 39.9662 24.4845C40.6695 25.1877 41.0646 26.1416 41.0646 27.1361C41.0645 27.2788 41.0481 27.4209 41.0158 27.5599C40.2654 30.7974 38.6681 33.7772 36.3873 36.1944C34.1066 38.6115 31.2243 40.379 28.0358 41.3159C24.8473 42.2527 21.4671 42.3253 18.2413 41.5262C15.0155 40.7271 12.06 39.0849 9.67762 36.7679C7.2952 34.4509 5.5714 31.5424 4.68276 28.3401C3.79411 25.1378 3.77255 21.7568 4.62029 18.5435C5.46803 15.3301 7.1546 12.3998 9.50728 10.0526C11.86 7.70541 14.7942 6.02571 18.0096 5.1855L18.5158 5.05988L18.7202 5.02425Z" fill="#333333"/>
<path id="Vector_2" d="M26.25 6.56239V16.8749C26.25 17.3722 26.4475 17.8491 26.7992 18.2007C27.1508 18.5523 27.6277 18.7499 28.125 18.7499H38.4375C38.7372 18.7498 39.0325 18.6779 39.2987 18.5402C39.5648 18.4024 39.7941 18.2029 39.9673 17.9583C40.1405 17.7137 40.2525 17.4311 40.2939 17.1343C40.3354 16.8375 40.3051 16.5351 40.2056 16.2524C39.2744 13.6074 37.7617 11.205 35.7791 9.22196C33.7964 7.23897 31.3942 5.72594 28.7494 4.79427C28.4666 4.6944 28.1639 4.66382 27.8669 4.70511C27.5698 4.7464 27.287 4.85835 27.0421 5.03156C26.7973 5.20477 26.5976 5.43419 26.4597 5.70056C26.3219 5.96693 26.25 6.26247 26.25 6.56239Z" fill="#333333"/>
</g>
</g>
</svg>
