<svg width="45" height="45" viewBox="0 0 45 45" fill="none" xmlns="http://www.w3.org/2000/svg">
<g id="mingcute:calendar-time-add-fill">
<g id="Group">
<path id="Vector" fill-rule="evenodd" clip-rule="evenodd" d="M30 5.625C30.4973 5.625 30.9742 5.82254 31.3258 6.17417C31.6775 6.52581 31.875 7.00272 31.875 7.5V9.375H35.625C36.6196 9.375 37.5734 9.77009 38.2766 10.4733C38.9799 11.1766 39.375 12.1304 39.375 13.125V23.49C37.2317 21.5741 34.4363 20.5514 31.5627 20.6318C28.689 20.7122 25.9552 21.8897 23.9225 23.9225C21.8897 25.9552 20.7122 28.689 20.6318 31.5627C20.5514 34.4363 21.5741 37.2317 23.49 39.375H9.375C8.38044 39.375 7.42661 38.9799 6.72335 38.2766C6.02009 37.5734 5.625 36.6196 5.625 35.625V13.125C5.625 12.1304 6.02009 11.1766 6.72335 10.4733C7.42661 9.77009 8.38044 9.375 9.375 9.375H13.125V7.5C13.125 7.00272 13.3225 6.52581 13.6742 6.17417C14.0258 5.82254 14.5027 5.625 15 5.625C15.4973 5.625 15.9742 5.82254 16.3258 6.17417C16.6775 6.52581 16.875 7.00272 16.875 7.5V9.375H28.125V7.5C28.125 7.00272 28.3225 6.52581 28.6742 6.17417C29.0258 5.82254 29.5027 5.625 30 5.625ZM31.875 24.375C33.8641 24.375 35.7718 25.1652 37.1783 26.5717C38.5848 27.9782 39.375 29.8859 39.375 31.875C39.375 33.8641 38.5848 35.7718 37.1783 37.1783C35.7718 38.5848 33.8641 39.375 31.875 39.375C29.8859 39.375 27.9782 38.5848 26.5717 37.1783C25.1652 35.7718 24.375 33.8641 24.375 31.875C24.375 29.8859 25.1652 27.9782 26.5717 26.5717C27.9782 25.1652 29.8859 24.375 31.875 24.375ZM31.875 27.1875C31.4158 27.1876 30.9725 27.3562 30.6293 27.6613C30.2861 27.9665 30.0669 28.387 30.0131 28.8431L30 29.0625V31.875C30.0001 32.3342 30.1687 32.7775 30.4738 33.1207C30.779 33.4639 31.1995 33.6831 31.6556 33.7369L31.875 33.75H33.75C34.2279 33.7495 34.6876 33.5665 35.0351 33.2384C35.3826 32.9103 35.5917 32.462 35.6197 31.9849C35.6477 31.5078 35.4925 31.038 35.1858 30.6716C34.879 30.3051 34.4439 30.0696 33.9694 30.0131L33.75 30V29.0625C33.75 28.5652 33.5525 28.0883 33.2008 27.7367C32.8492 27.385 32.3723 27.1875 31.875 27.1875ZM15.9375 26.25H15C14.5027 26.25 14.0258 26.4475 13.6742 26.7992C13.3225 27.1508 13.125 27.6277 13.125 28.125C13.125 28.6223 13.3225 29.0992 13.6742 29.4508C14.0258 29.8025 14.5027 30 15 30H15.9375C16.4348 30 16.9117 29.8025 17.2633 29.4508C17.615 29.0992 17.8125 28.6223 17.8125 28.125C17.8125 27.6277 17.615 27.1508 17.2633 26.7992C16.9117 26.4475 16.4348 26.25 15.9375 26.25ZM20.625 18.75H15C14.5221 18.7505 14.0624 18.9335 13.7149 19.2616C13.3674 19.5897 13.1583 20.038 13.1303 20.5151C13.1023 20.9922 13.2575 21.462 13.5642 21.8284C13.871 22.1949 14.3061 22.4304 14.7806 22.4869L15 22.5H20.625C21.1029 22.4995 21.5626 22.3165 21.9101 21.9884C22.2576 21.6603 22.4667 21.212 22.4947 20.7349C22.5227 20.2578 22.3675 19.788 22.0608 19.4216C21.754 19.0551 21.3189 18.8196 20.8444 18.7631L20.625 18.75Z" fill="#3E3E3E"/>
</g>
</g>
</svg>
