<svg width="43" height="44" viewBox="0 0 43 44" fill="none" xmlns="http://www.w3.org/2000/svg">
<path d="M2.48077 0.500003C2.15499 0.500003 1.8324 0.559595 1.53142 0.675377C1.23044 0.791159 0.956961 0.960863 0.726601 1.1748C0.49624 1.38874 0.313507 1.64272 0.188837 1.92224C0.0641668 2.20176 0 2.50135 0 2.8039C0 3.10646 0.0641668 3.40605 0.188837 3.68557C0.313507 3.96509 0.49624 4.21907 0.726601 4.43301C0.956961 4.64694 1.23044 4.81665 1.53142 4.93243C1.8324 5.04821 2.15499 5.1078 2.48077 5.1078H8.55038L12.6519 20.8143C9.97945 21.446 7.60986 22.8868 5.91763 24.909C4.22541 26.9312 3.30705 29.4194 3.30769 31.9805C3.30769 33.2523 4.41908 34.2844 5.78846 34.2844H40.5192C41.1772 34.2844 41.8082 34.0417 42.2734 33.6096C42.7386 33.1775 43 32.5915 43 31.9805C43 31.3695 42.7386 30.7835 42.2734 30.3514C41.8082 29.9193 41.1772 29.6766 40.5192 29.6766H8.69262C9.20575 28.3287 10.1563 27.1618 11.4134 26.3365C12.6704 25.5113 14.1721 25.0684 15.7115 25.0688H37.2115C37.7706 25.0688 38.3132 24.8934 38.7515 24.5712C39.1897 24.2489 39.498 23.7986 39.6262 23.2933L42.4245 12.2499C42.5003 11.9503 42.5107 11.6397 42.4551 11.3364C42.3995 11.033 42.2791 10.7431 42.1009 10.4837C41.9227 10.2243 41.6903 10.0006 41.4175 9.82598C41.1448 9.65132 40.8371 9.52919 40.5126 9.46678C31.807 7.78661 22.9538 6.8509 14.0643 6.67138L12.9132 2.26018C12.7818 1.7577 12.4722 1.31088 12.0343 0.991612C11.5963 0.672342 11.0554 0.499186 10.4986 0.500003H2.48077ZM13.2308 40.4281C13.2308 41.2428 12.8823 42.0242 12.262 42.6003C11.6417 43.1764 10.8003 43.5 9.92308 43.5C9.04582 43.5 8.2045 43.1764 7.58419 42.6003C6.96387 42.0242 6.61538 41.2428 6.61538 40.4281C6.61538 39.6134 6.96387 38.8321 7.58419 38.256C8.2045 37.6799 9.04582 37.3563 9.92308 37.3563C10.8003 37.3563 11.6417 37.6799 12.262 38.256C12.8823 38.8321 13.2308 39.6134 13.2308 40.4281ZM39.6923 40.4281C39.6923 41.2428 39.3438 42.0242 38.7235 42.6003C38.1032 43.1764 37.2619 43.5 36.3846 43.5C35.5074 43.5 34.666 43.1764 34.0457 42.6003C33.4254 42.0242 33.0769 41.2428 33.0769 40.4281C33.0769 39.6134 33.4254 38.8321 34.0457 38.256C34.666 37.6799 35.5074 37.3563 36.3846 37.3563C37.2619 37.3563 38.1032 37.6799 38.7235 38.256C39.3438 38.8321 39.6923 39.6134 39.6923 40.4281Z" fill="#EA1D2C"/>
<path d="M23.9163 10.4741C21.2038 10.4741 19.7257 12.8944 19.7257 14.5563C19.7257 15.8945 21.009 16.4807 22.2048 16.4807L22.2013 16.4772C24.677 16.4772 26.392 14.229 26.392 12.395C26.392 11.0592 25.1233 10.4741 23.9163 10.4741ZM30.5243 10.4741C27.8118 10.4741 26.3337 12.8944 26.3337 14.5563C26.3337 15.8945 27.617 16.4807 28.8128 16.4807L28.8093 16.4772C31.2856 16.4766 33 14.229 33 12.395C33 11.0592 31.7283 10.4741 30.5243 10.4741ZM27.267 17.97L28.6874 19.0398C27.4216 20.2473 25.1151 21.096 23.2315 20.889C22.3585 20.7902 21.5249 20.4718 20.8083 19.9635C20.0918 19.4552 19.5158 18.7735 19.1342 17.9822H19C19.2357 19.2005 19.8693 20.306 20.8014 21.1251C21.7335 21.9442 22.9112 22.4305 24.1497 22.5077C26.3745 22.6477 28.4214 21.9798 29.9521 20.6819L29.9497 20.686L30.5797 22.429L31.4868 17.9822L27.267 17.97Z" fill="white"/>
</svg>
