<svg width="42" height="42" viewBox="0 0 42 42" fill="none" xmlns="http://www.w3.org/2000/svg">
<rect x="0.85" y="0.85" width="40.3" height="40.3" rx="19.15" stroke="black" stroke-width="0.3"/>
<circle cx="21" cy="21" r="20" fill="white"/>
<g clip-path="url(#clip0_198_651)">
<path d="M32.9746 14.7711H10.7293C10.2134 14.7711 9.79558 14.4227 9.79558 13.9926C9.79558 13.5624 10.2134 13.214 10.7293 13.214H29.8838C30.6497 13.214 31.2706 12.593 31.2706 11.8271C31.2706 10.873 30.4972 10.0996 29.5432 10.0996H9.79558C7.73269 10.0996 6.06079 11.4938 6.06079 13.214V28.7857C6.06079 30.5059 7.73269 31.9001 9.79558 31.9001H32.9746C34.6098 31.9001 35.9391 30.8524 35.9391 29.5643V17.1069C35.9391 15.8188 34.6098 14.7711 32.9746 14.7711Z" fill="#EA1D2C"/>
<g clip-path="url(#clip1_198_651)">
<rect width="13.1387" height="13.1387" transform="translate(14.9172 16.7178)" fill="#EA1D2C"/>
<path d="M19.5311 17.6321C16.9855 17.6321 15.5983 19.9034 15.5983 21.4631C15.5983 22.7189 16.8026 23.2691 17.9249 23.2691L17.9216 23.2658C20.245 23.2658 21.8545 21.156 21.8545 19.4348C21.8545 18.1812 20.6638 17.6321 19.5311 17.6321ZM25.7326 17.6321C23.1869 17.6321 21.7997 19.9034 21.7997 21.4631C21.7997 22.7189 23.0041 23.2691 24.1264 23.2691L24.1231 23.2658C26.447 23.2653 28.0559 21.156 28.0559 19.4348C28.0559 18.1812 26.8625 17.6321 25.7326 17.6321ZM22.6756 24.6668L24.0087 25.6708C22.8207 26.804 20.6561 27.6005 18.8884 27.4062C18.0692 27.3135 17.2868 27.0147 16.6143 26.5376C15.9419 26.0606 15.4013 25.4209 15.0431 24.6782H14.9172C15.1384 25.8216 15.7331 26.859 16.6078 27.6277C17.4825 28.3965 18.5878 28.8529 19.7501 28.9253C21.838 29.0567 23.759 28.4299 25.1955 27.2118L25.1933 27.2157L25.7846 28.8514L26.6358 24.6782L22.6756 24.6668Z" fill="white"/>
</g>
</g>
<defs>
<clipPath id="clip0_198_651">
<rect width="29.8783" height="24.9148" fill="white" transform="translate(6.06079 8.54248)"/>
</clipPath>
<clipPath id="clip1_198_651">
<rect width="13.1387" height="13.1387" fill="white" transform="translate(14.9172 16.7178)"/>
</clipPath>
</defs>
</svg>
