<svg width="44" height="44" viewBox="0 0 44 44" fill="none" xmlns="http://www.w3.org/2000/svg">
<path fill-rule="evenodd" clip-rule="evenodd" d="M28.8429 1.34194C29.7024 0.482696 30.868 0 32.0833 0C33.2987 0 34.4642 0.482696 35.3237 1.34194L41.8069 7.82506C42.6661 8.68456 43.1488 9.85014 43.1488 11.0655C43.1488 12.2808 42.6661 13.4464 41.8069 14.3059L35.3237 20.789C34.4642 21.6483 33.2987 22.131 32.0833 22.131C30.868 22.131 29.7024 21.6483 28.8429 20.789L22.3598 14.3059C21.5005 13.4464 21.0179 12.2808 21.0179 11.0655C21.0179 9.85014 21.5005 8.68456 22.3598 7.82506L28.8429 1.34194ZM13.75 1.89881C14.9656 1.89881 16.1314 2.3817 16.9909 3.24124C17.8504 4.10078 18.3333 5.26657 18.3333 6.48215V15.6488C18.3333 16.8644 17.8504 18.0302 16.9909 18.8897C16.1314 19.7493 14.9656 20.2321 13.75 20.2321H4.58333C3.36776 20.2321 2.20197 19.7493 1.34243 18.8897C0.482885 18.0302 0 16.8644 0 15.6488V6.48215C0 5.26657 0.482885 4.10078 1.34243 3.24124C2.20197 2.3817 3.36776 1.89881 4.58333 1.89881H13.75ZM41.25 29.3988C41.25 28.1832 40.7671 27.0174 39.9076 26.1579C39.048 25.2984 37.8822 24.8155 36.6667 24.8155H27.5C26.2844 24.8155 25.1186 25.2984 24.2591 26.1579C23.3996 27.0174 22.9167 28.1832 22.9167 29.3988V38.5655C22.9167 39.7811 23.3996 40.9468 24.2591 41.8064C25.1186 42.6659 26.2844 43.1488 27.5 43.1488H36.6667C37.8822 43.1488 39.048 42.6659 39.9076 41.8064C40.7671 40.9468 41.25 39.7811 41.25 38.5655V29.3988ZM13.75 24.8155C14.9656 24.8155 16.1314 25.2984 16.9909 26.1579C17.8504 27.0174 18.3333 28.1832 18.3333 29.3988V38.5655C18.3333 39.7811 17.8504 40.9468 16.9909 41.8064C16.1314 42.6659 14.9656 43.1488 13.75 43.1488H4.58333C3.36776 43.1488 2.20197 42.6659 1.34243 41.8064C0.482885 40.9468 0 39.7811 0 38.5655V29.3988C0 28.1832 0.482885 27.0174 1.34243 26.1579C2.20197 25.2984 3.36776 24.8155 4.58333 24.8155H13.75Z" fill="#333333"/>
</svg>
