<svg width="43" height="42" viewBox="0 0 43 42" fill="none" xmlns="http://www.w3.org/2000/svg">
<path id="Vector" fill-rule="evenodd" clip-rule="evenodd" d="M28.575 1.30621C29.4116 0.469844 30.5462 0 31.7291 0C32.9121 0 34.0467 0.469844 34.8833 1.30621L41.1938 7.61672C42.0302 8.45334 42.5 9.58789 42.5 10.7709C42.5 11.9538 42.0302 13.0884 41.1938 13.925L34.8833 20.2355C34.0467 21.0719 32.9121 21.5417 31.7291 21.5417C30.5462 21.5417 29.4116 21.0719 28.575 20.2355L22.2645 13.925C21.4281 13.0884 20.9583 11.9538 20.9583 10.7709C20.9583 9.58789 21.4281 8.45334 22.2645 7.61672L28.575 1.30621ZM13.8839 1.84826C15.0671 1.84826 16.2019 2.31829 17.0385 3.15494C17.8752 3.9916 18.3452 5.12635 18.3452 6.30956V15.2322C18.3452 16.4154 17.8752 17.5501 17.0385 18.3868C16.2019 19.2234 15.0671 19.6935 13.8839 19.6935H4.9613C3.77809 19.6935 2.64334 19.2234 1.80669 18.3868C0.970029 17.5501 0.5 16.4154 0.5 15.2322V6.30956C0.5 5.12635 0.970029 3.9916 1.80669 3.15494C2.64334 2.31829 3.77809 1.84826 4.9613 1.84826H13.8839ZM40.6517 28.6161C40.6517 27.4329 40.1817 26.2981 39.3451 25.4615C38.5084 24.6248 37.3736 24.1548 36.1904 24.1548H27.2678C26.0846 24.1548 24.9499 24.6248 24.1132 25.4615C23.2766 26.2981 22.8065 27.4329 22.8065 28.6161V37.5387C22.8065 38.7219 23.2766 39.8567 24.1132 40.6933C24.9499 41.53 26.0846 42 27.2678 42H36.1904C37.3736 42 38.5084 41.53 39.3451 40.6933C40.1817 39.8567 40.6517 38.7219 40.6517 37.5387V28.6161ZM13.8839 24.1548C15.0671 24.1548 16.2019 24.6248 17.0385 25.4615C17.8752 26.2981 18.3452 27.4329 18.3452 28.6161V37.5387C18.3452 38.7219 17.8752 39.8567 17.0385 40.6933C16.2019 41.53 15.0671 42 13.8839 42H4.9613C3.77809 42 2.64334 41.53 1.80669 40.6933C0.970029 39.8567 0.5 38.7219 0.5 37.5387V28.6161C0.5 27.4329 0.970029 26.2981 1.80669 25.4615C2.64334 24.6248 3.77809 24.1548 4.9613 24.1548H13.8839Z" fill="#820AD1"/>
</svg>
