<svg width="45" height="46" viewBox="0 0 45 46" fill="none" xmlns="http://www.w3.org/2000/svg">
<g id="tabler:chart-pie-filled">
<g id="Group">
<path id="Vector" d="M18.7202 5.57137C19.612 5.46626 20.5107 5.70186 21.2363 6.23101C21.9619 6.76016 22.4608 7.54381 22.6333 8.42512L22.6802 8.73824L22.6896 8.93324V22.0582C22.6896 22.5175 22.8582 22.9608 23.1634 23.3039C23.4686 23.6471 23.8891 23.8664 24.3452 23.9201L24.5646 23.9332H37.3146C38.3091 23.9332 39.263 24.3283 39.9662 25.0316C40.6695 25.7349 41.0646 26.6887 41.0646 27.6832C41.0645 27.8259 41.0481 27.9681 41.0158 28.107C40.2654 31.3445 38.6681 34.3244 36.3873 36.7415C34.1066 39.1586 31.2243 40.9261 28.0358 41.863C24.8473 42.7999 21.4671 42.8724 18.2413 42.0733C15.0155 41.2742 12.06 39.632 9.67762 37.315C7.2952 34.998 5.5714 32.0895 4.68276 28.8872C3.79411 25.6849 3.77255 22.3039 4.62029 19.0906C5.46803 15.8772 7.1546 12.9469 9.50728 10.5997C11.86 8.25253 14.7942 6.57283 18.0096 5.73262L18.5158 5.60699L18.7202 5.57137Z" fill="white"/>
<path id="Vector_2" d="M26.25 7.10951V17.422C26.25 17.9193 26.4475 18.3962 26.7992 18.7478C27.1508 19.0995 27.6277 19.297 28.125 19.297H38.4375C38.7372 19.2969 39.0325 19.225 39.2987 19.0873C39.5648 18.9495 39.7941 18.75 39.9673 18.5054C40.1405 18.2608 40.2525 17.9783 40.2939 17.6814C40.3354 17.3846 40.3051 17.0822 40.2056 16.7995C39.2744 14.1545 37.7617 11.7521 35.7791 9.76908C33.7964 7.78609 31.3942 6.27305 28.7494 5.34139C28.4666 5.24151 28.1639 5.21094 27.8669 5.25223C27.5698 5.29352 27.287 5.40546 27.0421 5.57868C26.7973 5.75189 26.5976 5.98131 26.4597 6.24768C26.3219 6.51405 26.25 6.80959 26.25 7.10951Z" fill="white"/>
</g>
</g>
</svg>
