<svg width="45" height="46" viewBox="0 0 45 46" fill="none" xmlns="http://www.w3.org/2000/svg">
<g id="vscode-icons:file-type-light-config">
<path id="Vector" d="M32.7164 34.8331L33.982 33.5759C39.8376 33.7672 39.9276 33.5619 40.185 32.96L41.7937 29.0436L41.9132 28.6723L41.7825 28.3475C41.7135 28.1759 41.5012 27.664 37.845 24.178V22.3442C42.0637 18.2801 41.9737 18.072 41.7332 17.4772L40.1315 13.52C39.891 12.9265 39.7996 12.6945 33.9862 12.8534L32.7206 11.5456C32.8512 9.61919 32.7848 7.68446 32.5223 5.77155L32.3592 5.4017L28.177 3.57358C27.561 3.29233 27.3445 3.19108 23.3957 7.49139L21.621 7.46467C17.5556 3.12498 17.3629 3.20373 16.754 3.44983L12.8657 5.02202C12.2568 5.26811 12.0417 5.3553 12.2779 11.2615L11.0221 12.5131C5.16933 12.3219 5.07933 12.53 4.8248 13.129L3.21323 17.0469L3.08667 17.4223L3.21886 17.7486C3.28776 17.9173 3.49167 18.4236 7.15636 21.9139V23.742C2.93761 27.8061 3.02901 28.0142 3.27089 28.6104L4.8712 32.5719C5.11589 33.178 5.20308 33.3931 11.0151 33.2412L12.2807 34.5561C12.1495 36.4795 12.2141 38.4113 12.4734 40.3217L12.6365 40.6944L16.8454 42.5337C17.4571 42.7897 17.6695 42.8811 21.607 38.5962L23.3817 38.6187C27.4528 42.964 27.6609 42.8797 28.2557 42.6392L32.1356 41.0712C32.7487 40.8279 32.9625 40.7422 32.7164 34.8331ZM16.041 25.6587C15.5503 24.3763 15.4493 22.9775 15.7506 21.6379C16.052 20.2983 16.7422 19.0775 17.7348 18.1287C18.7273 17.1799 19.978 16.5453 21.3299 16.3047C22.6817 16.0641 24.0745 16.228 25.3335 16.776C26.5925 17.324 27.6617 18.2317 28.4067 19.385C29.1518 20.5384 29.5397 21.8861 29.5217 23.2591C29.5037 24.6321 29.0805 25.9692 28.3054 27.1026C27.5303 28.236 26.4378 29.1152 25.1648 29.63C23.428 30.3092 21.4928 30.2726 19.7829 29.5283C18.073 28.7841 16.7275 27.3927 16.041 25.6587Z" fill="white"/>
</g>
</svg>
