<svg width="46" height="46" viewBox="0 0 46 46" fill="none" xmlns="http://www.w3.org/2000/svg">
<g id="mingcute:filter-fill">
<g id="Group">
<path id="Vector" fill-rule="evenodd" clip-rule="evenodd" d="M6.125 8.9375C6.125 8.19158 6.42132 7.47621 6.94876 6.94876C7.47621 6.42132 8.19158 6.125 8.9375 6.125H37.0625C37.8084 6.125 38.5238 6.42132 39.0512 6.94876C39.5787 7.47621 39.875 8.19158 39.875 8.9375V12.8488C39.8748 13.8432 39.4796 14.7969 38.7762 15.5L28.625 25.6512V39.5712C28.6251 39.9229 28.5352 40.2686 28.364 40.5758C28.1928 40.8829 27.946 41.1411 27.6469 41.326C27.3478 41.5108 27.0064 41.6162 26.6552 41.632C26.3039 41.6478 25.9545 41.5735 25.64 41.4163L18.6706 37.9325C18.2813 37.7379 17.9539 37.4386 17.7251 37.0684C17.4962 36.6982 17.375 36.2715 17.375 35.8363V25.6512L7.22375 15.5C6.52044 14.7969 6.12521 13.8432 6.125 12.8488V8.9375Z" fill="#333333"/>
</g>
</g>
</svg>
