<svg width="46" height="46" viewBox="0 0 46 46" fill="none" xmlns="http://www.w3.org/2000/svg">
<path id="Vector" fill-rule="evenodd" clip-rule="evenodd" d="M11.7734 13.3571C13.4819 13.3571 15.1204 12.6798 16.3285 11.4743C17.5366 10.2687 18.2153 8.63353 18.2153 6.92857C18.2153 5.22361 17.5366 3.58848 16.3285 2.38288C15.1204 1.17729 13.4819 0.5 11.7734 0.5C10.0649 0.5 8.42632 1.17729 7.21823 2.38288C6.01014 3.58848 5.33144 5.22361 5.33144 6.92857C5.33144 8.63353 6.01014 10.2687 7.21823 11.4743C8.42632 12.6798 10.0649 13.3571 11.7734 13.3571ZM18.3602 32.6429V32.5464C18.3602 29.3643 20.1221 26.5936 22.7246 25.1471C22.0703 22.4745 20.4573 20.1339 18.1907 18.5677C15.924 17.0016 13.1609 16.3187 10.4238 16.648C7.6867 16.9774 5.16543 18.2962 3.3368 20.3551C1.50817 22.414 0.498946 25.0702 0.500001 27.8214V31.0357C0.500001 31.462 0.669676 31.8707 0.971699 32.1721C1.27372 32.4735 1.68335 32.6429 2.11048 32.6429H5.33144L6.76476 44.0921C6.81343 44.4808 7.00262 44.8383 7.2968 45.0975C7.59098 45.3568 7.9699 45.4999 8.36236 45.5H15.1876C15.58 45.4999 15.9589 45.3568 16.2531 45.0975C16.5473 44.8383 16.7365 44.4808 16.7852 44.0921L18.2153 32.6429H18.3602ZM32.4744 25.2082C32.2609 25.2082 32.0561 25.2929 31.9051 25.4436C31.754 25.5943 31.6692 25.7987 31.6692 26.0118V28.1043H36.2204V26.015C36.2204 25.8019 36.1356 25.5975 35.9846 25.4468C35.8336 25.2961 35.6287 25.2114 35.4152 25.2114L32.4744 25.2082ZM26.8378 26.0118V28.1043C24.3802 28.1043 22.3864 30.0971 22.3864 32.5496V41.0579C22.3864 43.5104 24.3802 45.5 26.8378 45.5H41.0486C43.5062 45.5 45.5 43.5104 45.5 41.0579V32.5464C45.5 30.0939 43.5094 28.1043 41.0519 28.1043V26.015C41.0519 24.5232 40.458 23.0924 39.4009 22.0375C38.3438 20.9826 36.9101 20.39 35.4152 20.39H32.4744C30.9795 20.39 29.5458 20.9826 28.4887 22.0375C27.4316 23.0924 26.8378 24.5232 26.8378 26.015V26.0118Z" fill="#3E3E3E"/>
</svg>
