<svg width="45" height="46" viewBox="0 0 45 46" fill="none" xmlns="http://www.w3.org/2000/svg">
<g id="Frame 20">
<path id="Vector" fill-rule="evenodd" clip-rule="evenodd" d="M19.7368 1.55935C20.5268 0.903304 21.499 0.547119 22.4998 0.547119C23.5006 0.547119 24.4728 0.903304 25.2627 1.55935L44.1263 17.2212C45.8206 18.6313 44.8846 21.5258 42.7426 21.5258H40.4994V40.7429C40.4994 42.017 40.0253 43.239 39.1814 44.14C38.3375 45.041 37.193 45.5471 35.9995 45.5471H9.00005C7.8066 45.5471 6.66203 45.041 5.81813 44.14C4.97424 43.239 4.50014 42.017 4.50014 40.7429V21.5258H2.25694C0.112731 21.5258 -0.81875 18.6289 0.873216 17.2236L19.7368 1.55935Z" fill="white"/>
</g>
</svg>
