<svg width="69" height="49" viewBox="0 0 69 49" fill="none" xmlns="http://www.w3.org/2000/svg">
<g id="Group 2">
<path id="Vector" d="M1.24806 14.1682C0.654333 14.564 0.654338 15.4365 1.24807 15.8323L20.9452 28.9635C21.6097 29.4066 22.4999 28.9302 22.4999 28.1315V22.9186C22.4999 22.3664 22.9476 21.9186 23.4999 21.9186H37.3994C37.9517 21.9186 38.3994 21.4709 38.3994 20.9186V9.08135C38.3994 8.52906 37.9517 8.08135 37.3994 8.08135H23.4999C22.9476 8.08135 22.4999 7.63363 22.4999 7.08135V1.86854C22.4999 1.06984 21.6097 0.593451 20.9451 1.0365L1.24806 14.1682Z" fill="#3483F9"/>
<path id="Vector_2" d="M67.1514 34.8318C67.7451 34.436 67.7451 33.5635 67.1513 33.1677L47.4543 20.0365C46.7897 19.5934 45.8996 20.0698 45.8996 20.8685V26.0814C45.8996 26.6336 45.4518 27.0814 44.8996 27.0814L31 27.0814C30.4477 27.0814 30 27.5291 30 28.0814V39.9187C30 40.4709 30.4477 40.9186 31 40.9186H44.8996C45.4518 40.9186 45.8996 41.3664 45.8996 41.9186V47.1315C45.8996 47.9302 46.7897 48.4065 47.4543 47.9635L67.1514 34.8318Z" fill="#3483F9"/>
</g>
</svg>
