<svg width="41" height="41" viewBox="0 0 41 41" fill="none" xmlns="http://www.w3.org/2000/svg">
<g id="itau">
<path id="Vector" d="M20.3535 40.8257C31.3992 40.8257 40.3535 31.8714 40.3535 20.8257C40.3535 9.77999 31.3992 0.825684 20.3535 0.825684C9.30782 0.825684 0.353516 9.77999 0.353516 20.8257C0.353516 31.8714 9.30782 40.8257 20.3535 40.8257Z" fill="#EC7600"/>
<path id="Vector_2" fill-rule="evenodd" clip-rule="evenodd" d="M13.3995 10.8257L27.3075 10.8257C28.9898 10.8257 30.3535 12.1894 30.3535 13.8717L30.3535 27.7797C30.3535 29.462 28.9898 30.8257 27.3075 30.8257L13.3995 30.8257C11.7172 30.8257 10.3535 29.462 10.3535 27.7797L10.3535 13.8717C10.3535 12.1894 11.7172 10.8257 13.3995 10.8257Z" fill="#1D3F89"/>
<path id="Vector_3" fill-rule="evenodd" clip-rule="evenodd" d="M25.588 22.2982L26.6993 22.2982L27.9732 20.8257L26.5862 20.8257L25.588 22.2982ZM13.686 20.8515L11.9043 20.8515L11.9043 27.7482L13.686 27.7482L13.686 20.8515ZM20.4459 23.5546C19.2638 23.5137 18.8382 23.9136 18.8382 23.9136L18.3649 22.9863C18.3649 22.9863 18.9348 22.6558 19.234 22.5562C19.533 22.4566 20.6092 22.1996 21.6017 22.574C22.2393 22.8301 22.6726 23.2519 22.808 24.1089C22.8276 25.0495 22.808 27.6623 22.808 27.6623L21.2896 27.6623L21.2896 27.1868C21.2896 27.1868 21.2896 27.2595 20.7126 27.5346C20.1358 27.8097 19.1867 27.7571 18.7125 27.3828C18.2383 27.0084 17.8226 26.5328 18.0882 25.6026C18.3539 24.6724 19.3447 24.3943 19.6665 24.3371C19.9883 24.2799 21.2448 24.304 21.2448 24.304C21.2448 24.304 21.2068 23.5889 20.4459 23.5546ZM21.2985 25.2462L21.2985 26.0701C21.2985 26.0701 20.4821 27.0518 19.8049 26.5786C19.4794 26.3512 19.4634 26.0199 19.5975 25.7518C19.7425 25.4621 20.0798 25.2536 20.3082 25.2462C20.7478 25.2319 21.2985 25.2462 21.2985 25.2462ZM28.7714 22.603L27.1077 22.603C27.1077 22.603 27.1338 24.9144 27.1077 25.4686C27.0817 26.0229 26.9448 26.4368 26.1838 26.506C25.4272 26.5748 25.2758 25.936 25.2399 25.7846L25.2392 25.7819C25.1912 24.3326 25.2061 22.603 25.2061 22.603L23.6436 22.603C23.6436 22.603 23.586 25.6496 23.7117 26.4535C23.8374 27.2574 24.7627 27.6306 25.7445 27.6637C26.7263 27.6969 27.2786 26.9155 27.2786 26.9155L27.2786 27.6916L28.7714 27.6916L28.7714 22.603ZM16.5508 25.9078L16.5508 23.7377L17.5334 23.749L17.5334 22.5658L16.564 22.5658L16.564 20.8621L15.0046 20.8621L15.0046 22.5797L14.2402 22.5797L14.2402 23.7377L14.9972 23.7377L14.9972 25.1057C14.8837 26.4915 15.2672 27.2674 15.7533 27.5561C16.2395 27.8447 17.4718 27.5834 17.4718 27.5834L17.4718 26.4486C17.478 26.4452 17.4718 26.442 17.4718 26.442L17.4718 26.4486C17.4584 26.4556 17.388 26.4634 17.078 26.442C16.6226 26.4106 16.5508 25.9078 16.5508 25.9078Z" fill="#F4E800"/>
</g>
</svg>
