<svg width="61" height="56" viewBox="0 0 61 56" fill="none" xmlns="http://www.w3.org/2000/svg">
<path id="Vector" d="M21.4212 0.452881C9.60242 0.452881 3.16183 11.5169 3.16183 19.1142C3.16183 25.2316 8.7535 27.9116 13.9639 27.9116L13.9487 27.8956C24.7355 27.8956 32.208 17.6182 32.208 9.23422C32.208 3.12755 26.6799 0.452881 21.4212 0.452881ZM50.2132 0.452881C38.3944 0.452881 31.9538 11.5169 31.9538 19.1142C31.9538 25.2316 37.5455 27.9116 42.7559 27.9116L42.7407 27.8956C53.53 27.8929 61 17.6182 61 9.23422C61 3.12755 55.4592 0.452881 50.2132 0.452881ZM36.0205 34.7196L42.2095 39.6102C36.694 45.1302 26.6443 49.0102 18.4373 48.0636C14.6336 47.6122 11.0011 46.1566 7.87912 43.8329C4.75709 41.5091 2.24743 38.393 0.584583 34.7756H0C1.02691 40.3448 3.78775 45.3984 7.84896 49.1429C11.9102 52.8874 17.0417 55.1107 22.4378 55.4636C32.1318 56.1036 41.0505 53.0502 47.7198 47.1169L47.7096 47.1356L50.4546 55.1036L54.4069 34.7756L36.0205 34.7196Z" fill="white"/>
</svg>
