<svg width="40" height="40" viewBox="0 0 40 40" fill="none" xmlns="http://www.w3.org/2000/svg">
<g id="nubank" clip-path="url(#clip0_198_635)">
<path id="Vector" d="M20 40C31.0457 40 40 31.0457 40 20C40 8.95431 31.0457 0 20 0C8.95431 0 0 8.95431 0 20C0 31.0457 8.95431 40 20 40Z" fill="#820AD1"/>
<g id="Clip path group">
<mask id="mask0_198_635" style="mask-type:luminance" maskUnits="userSpaceOnUse" x="8" y="14" width="23" height="12">
<g id="clip0_610_2059">
<path id="Vector_2" d="M30.6667 14H8.66675V26H30.6667V14Z" fill="white"/>
</g>
</mask>
<g mask="url(#mask0_198_635)">
<g id="Group">
<path id="Vector_3" d="M12.64 15.1439C13.3352 14.4219 14.2548 14 15.3416 14C17.4536 14 18.8528 15.5223 19.1212 17.8057C19.2092 18.5495 19.2092 19.5933 19.2048 20.8025V25.7173H16.3008V22.3639C16.3008 22.3639 16.2964 19.4933 16.2788 18.954C16.1996 16.6183 14.8004 15.1483 12.64 15.1439C11.9844 15.8311 11.6368 16.6619 11.584 17.9362C11.5752 18.1145 11.5796 18.7452 11.5796 19.5716C11.5796 20.0022 11.584 20.4849 11.584 20.9895V25.7217H8.67996V20.5589C8.67996 20.3806 8.67556 20.2023 8.67556 20.0239C8.67116 19.6629 8.66236 19.3019 8.67996 18.9409C8.71076 18.3407 8.81636 17.7492 9.10236 17.2011C9.74916 15.9485 11.078 15.1395 12.4904 15.1395C12.5388 15.1395 12.5872 15.1439 12.64 15.1439Z" fill="white"/>
<path id="Vector_4" d="M30.6535 21.059C30.6711 20.698 30.6667 20.337 30.6579 19.976C30.6535 19.7977 30.6535 19.6193 30.6535 19.4411V14.2783H27.7495V19.0105C27.7495 19.515 27.7495 19.9977 27.7539 20.4283C27.7583 21.2591 27.7583 21.8897 27.7495 22.0637C27.6967 23.3381 27.3491 24.1689 26.6979 24.8517C24.5375 24.8517 23.1339 23.3816 23.0591 21.046C23.0415 20.511 23.0327 19.1757 23.0327 17.6361V14.2739L20.1287 14.2783V19.1931C20.1287 20.4023 20.1287 21.4505 20.2123 22.1899C20.4807 24.4733 21.8799 25.9956 23.9919 25.9956C25.0743 25.9956 25.9983 25.5737 26.6935 24.8517C26.7419 24.8517 26.7903 24.8561 26.8431 24.8561C28.2599 24.8561 29.5843 24.0471 30.2311 22.7944C30.5171 22.2464 30.6227 21.6593 30.6535 21.059Z" fill="white"/>
</g>
</g>
</g>
</g>
<defs>
<clipPath id="clip0_198_635">
<rect width="40" height="40" fill="white"/>
</clipPath>
</defs>
</svg>
