<svg width="30" height="20" viewBox="0 0 30 20" fill="none" xmlns="http://www.w3.org/2000/svg">
<path id="Vector" d="M28.1707 12.2752C28.2464 12.5118 28.413 12.7087 28.6338 12.8226C28.8546 12.9365 29.1115 12.9581 29.3483 12.8827C29.8358 12.7252 30.1133 12.2002 29.9558 11.7051L29.955 11.7029C29.8883 11.5026 26.1313 0.177002 14.9992 0.177002C3.86934 0.177002 0.111633 11.5026 0.0456289 11.7036L0.0448789 11.7051C-0.11263 12.2002 0.157385 12.7252 0.652413 12.8827C1.14744 13.0402 1.67247 12.7702 1.82998 12.2752C1.96424 11.8551 5.21192 2.05211 15 2.05211C24.788 2.05211 28.0357 11.8551 28.1707 12.2752ZM15 19.6781C16.7903 19.6781 18.5073 18.9669 19.7732 17.7009C21.0391 16.435 21.7503 14.718 21.7503 12.9277C21.7503 11.1374 21.0391 9.42041 19.7732 8.15447C18.5073 6.88853 16.7903 6.17733 15 6.17733C13.2096 6.17733 11.4927 6.88853 10.2267 8.15447C8.96078 9.42041 8.24958 11.1374 8.24958 12.9277C8.24958 14.718 8.96078 16.435 10.2267 17.7009C11.4927 18.9669 13.2096 19.6781 15 19.6781Z" fill="#717171"/>
</svg>
