<svg width="46" height="46" viewBox="0 0 46 46" fill="none" xmlns="http://www.w3.org/2000/svg">
<g id="mdi:account-view">
<path id="Vector" d="M11.75 15.5C11.75 11.3562 15.1062 8 19.25 8C23.3937 8 26.75 11.3562 26.75 15.5C26.75 19.6438 23.3937 23 19.25 23C15.1062 23 11.75 19.6438 11.75 15.5ZM17.6375 37.5312L17.0938 36.125L17.6375 34.7188C18.95 31.4375 21.275 28.8875 24.1437 27.1625C22.6062 26.9 20.975 26.75 19.25 26.75C10.9625 26.75 4.25 30.1063 4.25 34.25V38H17.8813C17.8063 37.8312 17.7125 37.6812 17.6375 37.5312ZM32.375 34.25C31.325 34.25 30.5 35.075 30.5 36.125C30.5 37.175 31.325 38 32.375 38C33.425 38 34.25 37.175 34.25 36.125C34.25 35.075 33.425 34.25 32.375 34.25ZM43.625 36.125C41.8625 40.5125 37.4938 43.625 32.375 43.625C27.2563 43.625 22.8875 40.5125 21.125 36.125C22.8875 31.7375 27.2563 28.625 32.375 28.625C37.4938 28.625 41.8625 31.7375 43.625 36.125ZM37.0625 36.125C37.0625 34.8818 36.5686 33.6895 35.6896 32.8104C34.8105 31.9314 33.6182 31.4375 32.375 31.4375C31.1318 31.4375 29.9395 31.9314 29.0604 32.8104C28.1814 33.6895 27.6875 34.8818 27.6875 36.125C27.6875 37.3682 28.1814 38.5605 29.0604 39.4396C29.9395 40.3186 31.1318 40.8125 32.375 40.8125C33.6182 40.8125 34.8105 40.3186 35.6896 39.4396C36.5686 38.5605 37.0625 37.3682 37.0625 36.125Z" fill="#3E3E3E"/>
</g>
</svg>
