<svg width="45" height="46" viewBox="0 0 45 46" fill="none" xmlns="http://www.w3.org/2000/svg">
<path id="Vector" fill-rule="evenodd" clip-rule="evenodd" d="M11.2734 13.4045C12.9819 13.4045 14.6204 12.7272 15.8285 11.5216C17.0366 10.316 17.7153 8.6809 17.7153 6.97593C17.7153 5.27097 17.0366 3.63584 15.8285 2.43025C14.6204 1.22466 12.9819 0.547363 11.2734 0.547363C9.56485 0.547363 7.92632 1.22466 6.71823 2.43025C5.51014 3.63584 4.83144 5.27097 4.83144 6.97593C4.83144 8.6809 5.51014 10.316 6.71823 11.5216C7.92632 12.7272 9.56485 13.4045 11.2734 13.4045ZM17.8602 32.6902V32.5938C17.8602 29.4116 19.6221 26.6409 22.2246 25.1945C21.5703 22.5219 19.9573 20.1812 17.6907 18.6151C15.424 17.049 12.6609 16.366 9.92379 16.6954C7.1867 17.0247 4.66543 18.3436 2.8368 20.4025C1.00817 22.4614 -0.00105362 25.1176 8.25444e-07 27.8688V31.0831C8.25444e-07 31.5093 0.169676 31.9181 0.471699 32.2195C0.773723 32.5209 1.18335 32.6902 1.61048 32.6902H4.83144L6.26476 44.1395C6.31343 44.5281 6.50262 44.8856 6.7968 45.1449C7.09098 45.4041 7.4699 45.5473 7.86236 45.5474H14.6876C15.08 45.5473 15.4589 45.4041 15.7531 45.1449C16.0473 44.8856 16.2365 44.5281 16.2852 44.1395L17.7153 32.6902H17.8602ZM31.9744 25.2556C31.7609 25.2556 31.5561 25.3402 31.4051 25.4909C31.254 25.6416 31.1692 25.846 31.1692 26.0591V28.1516H35.7204V26.0624C35.7204 25.8492 35.6356 25.6448 35.4846 25.4942C35.3336 25.3435 35.1287 25.2588 34.9152 25.2588L31.9744 25.2556ZM26.3378 26.0591V28.1516C23.8802 28.1516 21.8864 30.1445 21.8864 32.597V41.1052C21.8864 43.5577 23.8802 45.5474 26.3378 45.5474H40.5486C43.0062 45.5474 45 43.5577 45 41.1052V32.5938C45 30.1413 43.0094 28.1516 40.5519 28.1516V26.0624C40.5519 24.5705 39.958 23.1398 38.9009 22.0849C37.8438 21.03 36.4101 20.4374 34.9152 20.4374H31.9744C30.4795 20.4374 29.0458 21.03 27.9887 22.0849C26.9316 23.1398 26.3378 24.5705 26.3378 26.0624V26.0591Z" fill="white"/>
</svg>
