<svg width="34" height="34" viewBox="0 0 34 34" fill="none" xmlns="http://www.w3.org/2000/svg">
<path id="Vector" d="M24.8791 20.3549C26.1517 18.2649 26.8247 15.8651 26.8245 13.4182C26.8245 6.00543 20.8265 0.00295652 13.4123 0C6.0047 0.00221739 0 6.00543 0 13.4167C0 20.8213 6.00543 26.8238 13.4167 26.8238C15.9593 26.8238 18.3282 26.1053 20.3527 24.8777L29.4758 34L34 29.4736L24.8791 20.3549ZM13.4152 21.7157C8.83113 21.7046 5.12513 18 5.117 13.4256C5.12013 11.2256 5.99536 9.11655 7.55086 7.56077C9.10635 6.005 11.2152 5.12939 13.4152 5.12587C17.9971 5.1377 21.7046 8.84222 21.7142 13.4256C21.7046 17.9949 17.9956 21.7046 13.4152 21.7157Z" fill="#333333"/>
</svg>
