<svg width="40" height="41" viewBox="0 0 40 41" fill="none" xmlns="http://www.w3.org/2000/svg">
<circle cx="18" cy="20" r="17.85" fill="white" stroke="black" stroke-width="0.3"/>
<path d="M9.76439 23.6512C9.2085 23.6512 8.73148 23.4522 8.33334 23.054C7.9352 22.6559 7.73613 22.1789 7.73613 21.623C7.73613 21.0671 7.9352 20.5901 8.33334 20.1919C8.73148 19.7938 9.2085 19.5947 9.76439 19.5947C10.3203 19.5947 10.7973 19.7938 11.1954 20.1919C11.5936 20.5901 11.7927 21.0671 11.7927 21.623C11.7927 21.9911 11.6988 22.3291 11.5109 22.6371C11.3307 22.9451 11.0865 23.193 10.7785 23.3808C10.478 23.5611 10.14 23.6512 9.76439 23.6512ZM18.5028 23.6512C17.9469 23.6512 17.4699 23.4522 17.0718 23.054C16.6736 22.6559 16.4746 22.1789 16.4746 21.623C16.4746 21.0671 16.6736 20.5901 17.0718 20.1919C17.4699 19.7938 17.9469 19.5947 18.5028 19.5947C19.0587 19.5947 19.5357 19.7938 19.9339 20.1919C20.332 20.5901 20.5311 21.0671 20.5311 21.623C20.5311 21.9911 20.4372 22.3291 20.2494 22.6371C20.0691 22.9451 19.8249 23.193 19.5169 23.3808C19.2165 23.5611 18.8784 23.6512 18.5028 23.6512ZM27.2412 23.6512C26.6854 23.6512 26.2083 23.4522 25.8102 23.054C25.4121 22.6559 25.213 22.1789 25.213 21.623C25.213 21.0671 25.4121 20.5901 25.8102 20.1919C26.2083 19.7938 26.6854 19.5947 27.2412 19.5947C27.7971 19.5947 28.2742 19.7938 28.6723 20.1919C29.0704 20.5901 29.2695 21.0671 29.2695 21.623C29.2695 21.9911 29.1756 22.3291 28.9878 22.6371C28.8075 22.9451 28.5634 23.193 28.2554 23.3808C27.9549 23.5611 27.6168 23.6512 27.2412 23.6512Z" fill="black"/>
</svg>
