<svg width="34" height="34" viewBox="0 0 34 34" fill="none" xmlns="http://www.w3.org/2000/svg">
<g id="Group">
<path id="Vector" fill-rule="evenodd" clip-rule="evenodd" d="M30.6 28.3333C30.6 28.7091 30.4806 29.0694 30.2681 29.3351C30.0555 29.6007 29.7672 29.75 29.4667 29.75H4.53333C4.23275 29.75 3.94449 29.6007 3.73195 29.3351C3.5194 29.0694 3.4 28.7091 3.4 28.3333V25.5C3.4 25.1243 3.5194 24.7639 3.73195 24.4983C3.94449 24.2326 4.23275 24.0833 4.53333 24.0833H29.4667C29.7672 24.0833 30.0555 24.2326 30.2681 24.4983C30.4806 24.7639 30.6 25.1243 30.6 25.5V28.3333ZM30.6 18.4167C30.6 18.7924 30.4806 19.1527 30.2681 19.4184C30.0555 19.6841 29.7672 19.8333 29.4667 19.8333H26.0667C25.7661 19.8333 25.4778 19.6841 25.2653 19.4184C25.0527 19.1527 24.9333 18.7924 24.9333 18.4167V15.5833C24.9333 15.2076 25.0527 14.8473 25.2653 14.5816C25.4778 14.3159 25.7661 14.1667 26.0667 14.1667H29.4667C29.7672 14.1667 30.0555 14.3159 30.2681 14.5816C30.4806 14.8473 30.6 15.2076 30.6 15.5833V18.4167ZM30.6 8.5V5.66667C30.6 5.29094 30.4806 4.93061 30.2681 4.66493C30.0555 4.39926 29.7672 4.25 29.4667 4.25H17C16.6994 4.25 16.4112 4.39926 16.1986 4.66493C15.9861 4.93061 15.8667 5.29094 15.8667 5.66667V8.5C15.8667 8.87572 15.9861 9.23606 16.1986 9.50173C16.4112 9.76741 16.6994 9.91667 17 9.91667H29.4667C29.7672 9.91667 30.0555 9.76741 30.2681 9.50173C30.4806 9.23606 30.6 8.87572 30.6 8.5ZM4.53333 4.25C4.23275 4.25 3.94449 4.39926 3.73195 4.66493C3.5194 4.93061 3.4 5.29094 3.4 5.66667V8.5C3.4 8.87572 3.5194 9.23606 3.73195 9.50173C3.94449 9.76741 4.23275 9.91667 4.53333 9.91667H11.3333C11.6339 9.91667 11.9222 9.76741 12.1347 9.50173C12.3473 9.23606 12.4667 8.87572 12.4667 8.5V5.66667C12.4667 5.29094 12.3473 4.93061 12.1347 4.66493C11.9222 4.39926 11.6339 4.25 11.3333 4.25H4.53333ZM3.4 15.5833V18.4167C3.4 18.7924 3.5194 19.1527 3.73195 19.4184C3.94449 19.6841 4.23275 19.8333 4.53333 19.8333H20.4C20.7006 19.8333 20.9888 19.6841 21.2014 19.4184C21.4139 19.1527 21.5333 18.7924 21.5333 18.4167V15.5833C21.5333 15.2076 21.4139 14.8473 21.2014 14.5816C20.9888 14.3159 20.7006 14.1667 20.4 14.1667H4.53333C4.23275 14.1667 3.94449 14.3159 3.73195 14.5816C3.5194 14.8473 3.4 15.2076 3.4 15.5833ZM0 28.3333C0 29.8362 0.477618 31.2776 1.32778 32.3403C2.17795 33.403 3.33102 34 4.53333 34H29.4667C30.669 34 31.8221 33.403 32.6722 32.3403C33.5224 31.2776 34 29.8362 34 28.3333V5.66667C34 4.16377 33.5224 2.72243 32.6722 1.65973C31.8221 0.597022 30.669 0 29.4667 0H4.53333C3.33102 0 2.17795 0.597022 1.32778 1.65973C0.477618 2.72243 0 4.16377 0 5.66667V28.3333Z" fill="#333333"/>
</g>
</svg>
