<svg width="45" height="46" viewBox="0 0 45 46" fill="none" xmlns="http://www.w3.org/2000/svg">
<g id="gravity-ui:chart-bar-stacked" clip-path="url(#clip0_545_165)">
<g id="Group">
<g id="Clip path group">
<mask id="mask0_545_165" style="mask-type:luminance" maskUnits="userSpaceOnUse" x="0" y="0" width="45" height="46">
<g id="gravityUiChartBarStacked0">
<path id="Vector" d="M0 0.547363H45V45.5474H0V0.547363Z" fill="white"/>
</g>
</mask>
<g mask="url(#mask0_545_165)">
<g id="Group_2">
<path id="Vector_2" fill-rule="evenodd" clip-rule="evenodd" d="M39.375 34.2974C39.375 34.6703 39.2268 35.028 38.9631 35.2917C38.6994 35.5555 38.3417 35.7036 37.9688 35.7036H7.03125C6.65829 35.7036 6.3006 35.5555 6.03688 35.2917C5.77316 35.028 5.625 34.6703 5.625 34.2974V31.4849C5.625 31.1119 5.77316 30.7542 6.03688 30.4905C6.3006 30.2268 6.65829 30.0786 7.03125 30.0786H37.9688C38.3417 30.0786 38.6994 30.2268 38.9631 30.4905C39.2268 30.7542 39.375 31.1119 39.375 31.4849V34.2974ZM39.375 24.4536C39.375 24.8266 39.2268 25.1843 38.9631 25.448C38.6994 25.7117 38.3417 25.8599 37.9688 25.8599H33.75C33.377 25.8599 33.0194 25.7117 32.7556 25.448C32.4919 25.1843 32.3438 24.8266 32.3438 24.4536V21.6411C32.3438 21.2682 32.4919 20.9105 32.7556 20.6467C33.0194 20.383 33.377 20.2349 33.75 20.2349H37.9688C38.3417 20.2349 38.6994 20.383 38.9631 20.6467C39.2268 20.9105 39.375 21.2682 39.375 21.6411V24.4536ZM39.375 14.6099V11.7974C39.375 11.4244 39.2268 11.0667 38.9631 10.803C38.6994 10.5393 38.3417 10.3911 37.9688 10.3911H22.5C22.127 10.3911 21.7694 10.5393 21.5056 10.803C21.2419 11.0667 21.0938 11.4244 21.0938 11.7974V14.6099C21.0938 14.9828 21.2419 15.3405 21.5056 15.6042C21.7694 15.868 22.127 16.0161 22.5 16.0161H37.9688C38.3417 16.0161 38.6994 15.868 38.9631 15.6042C39.2268 15.3405 39.375 14.9828 39.375 14.6099ZM7.03125 10.3911C6.65829 10.3911 6.3006 10.5393 6.03688 10.803C5.77316 11.0667 5.625 11.4244 5.625 11.7974V14.6099C5.625 14.9828 5.77316 15.3405 6.03688 15.6042C6.3006 15.868 6.65829 16.0161 7.03125 16.0161H15.4688C15.8417 16.0161 16.1994 15.868 16.4631 15.6042C16.7268 15.3405 16.875 14.9828 16.875 14.6099V11.7974C16.875 11.4244 16.7268 11.0667 16.4631 10.803C16.1994 10.5393 15.8417 10.3911 15.4688 10.3911H7.03125ZM5.625 21.6411V24.4536C5.625 24.8266 5.77316 25.1843 6.03688 25.448C6.3006 25.7117 6.65829 25.8599 7.03125 25.8599H26.7188C27.0917 25.8599 27.4494 25.7117 27.7131 25.448C27.9768 25.1843 28.125 24.8266 28.125 24.4536V21.6411C28.125 21.2682 27.9768 20.9105 27.7131 20.6467C27.4494 20.383 27.0917 20.2349 26.7188 20.2349H7.03125C6.65829 20.2349 6.3006 20.383 6.03688 20.6467C5.77316 20.9105 5.625 21.2682 5.625 21.6411ZM1.40625 34.2974C1.40625 35.7892 1.99888 37.2199 3.05377 38.2748C4.10867 39.3297 5.53941 39.9224 7.03125 39.9224H37.9688C39.4606 39.9224 40.8913 39.3297 41.9462 38.2748C43.0011 37.2199 43.5938 35.7892 43.5938 34.2974V11.7974C43.5938 10.3055 43.0011 8.87478 41.9462 7.81989C40.8913 6.765 39.4606 6.17236 37.9688 6.17236H7.03125C5.53941 6.17236 4.10867 6.765 3.05377 7.81989C1.99888 8.87478 1.40625 10.3055 1.40625 11.7974V34.2974Z" fill="white"/>
</g>
</g>
</g>
</g>
</g>
<defs>
<clipPath id="clip0_545_165">
<rect width="45" height="45" fill="white" transform="translate(0 0.547363)"/>
</clipPath>
</defs>
</svg>
