<svg width="43" height="44" viewBox="0 0 43 44" fill="none" xmlns="http://www.w3.org/2000/svg">
<rect width="43" height="43" transform="translate(0 0.5)" fill="white"/>
<path fill-rule="evenodd" clip-rule="evenodd" d="M5.82967 33.6038C5.25334 34.1802 4.47168 34.5039 3.65663 34.5039C2.84159 34.5039 2.05992 34.1802 1.4836 33.6038C0.907272 33.0275 0.583496 32.2459 0.583496 31.4308C0.583496 30.6158 0.907272 29.8341 1.4836 29.2578L11.7207 19.0238L11.7422 19.0023C12.5786 18.1831 13.7027 17.7242 14.8735 17.7242C16.0443 17.7242 17.1684 18.1831 18.0048 19.0023L18.0263 19.0238L23.2508 24.2483L30.4595 16.625L27.2652 13.4307C26.9434 13.1085 26.7243 12.6983 26.6356 12.2517C26.5469 11.8051 26.5925 11.3422 26.7667 10.9216C26.9409 10.5009 27.2358 10.1413 27.6143 9.88813C27.9927 9.63499 28.4377 9.49967 28.893 9.49927H40.1099C40.7208 9.49927 41.3067 9.74196 41.7388 10.174C42.1708 10.606 42.4135 11.1919 42.4135 11.8028V23.0197C42.4131 23.475 42.2777 23.92 42.0246 24.2984C41.7714 24.6769 41.4118 24.9718 40.9911 25.146C40.5705 25.3202 40.1076 25.3658 39.661 25.2771C39.2145 25.1884 38.8042 24.9693 38.482 24.6476L34.8055 20.968L26.5004 29.7553C26.09 30.1789 25.6 30.5172 25.0584 30.7507C24.5169 30.9842 23.9345 31.1084 23.3448 31.1161C22.7551 31.1238 22.1697 31.0149 21.6223 30.7956C21.0748 30.5763 20.5761 30.251 20.1548 29.8383L20.1333 29.8168L14.872 24.5585L5.82967 33.6038Z" fill="black"/>
</svg>
