<svg width="7" height="25" viewBox="0 0 7 25" fill="none" xmlns="http://www.w3.org/2000/svg">
<path id="Vector" d="M2.38419e-05 21.5185V20.8544C0.0146723 20.8007 0.0390863 20.7519 0.048852 20.6982C0.263696 19.3017 1.42581 18.1982 2.78809 18.1054C4.31152 17.998 5.60059 18.8671 6.02051 20.2831C6.07422 20.4687 6.11328 20.664 6.16211 20.8544V21.5185C6.14746 21.5624 6.12305 21.6015 6.11816 21.6503C5.9082 22.9394 4.98047 23.9208 3.71094 24.1991C3.61328 24.2187 3.51562 24.2479 3.41797 24.2724H2.75391C2.70996 24.2577 2.66602 24.2333 2.62207 24.2284C1.35254 24.0233 0.385766 23.12 0.0927731 21.8651C0.0634763 21.7431 0.0293207 21.6308 2.38419e-05 21.5185ZM6.16213 2.749L6.16211 3.41311C6.14746 3.46682 6.12305 3.51565 6.11816 3.56936C5.89844 4.97561 4.73144 6.07424 3.35449 6.16213C1.83594 6.25979 0.551757 5.38088 0.136718 3.95999C0.0830072 3.7793 0.0439453 3.59377 0 3.41309V2.74902C0.0146484 2.70508 0.0390625 2.66602 0.0488281 2.62207C0.283203 1.35254 1.02051 0.522461 2.25098 0.126953C2.41211 0.0732422 2.58301 0.0439453 2.74902 0H3.41309C3.45703 0.0146484 3.50098 0.0390625 3.54492 0.0439453C4.81934 0.253906 5.78125 1.15234 6.07422 2.40723C6.10354 2.52441 6.13284 2.63672 6.16213 2.749ZM6.16211 11.8018V12.4658C6.14746 12.5195 6.12305 12.5684 6.11328 12.6221C5.89355 14.0234 4.68262 15.1514 3.31543 15.21C1.77734 15.2783 0.473633 14.3506 0.107422 12.9199C0.0683592 12.7686 0.0341797 12.6172 0 12.4658V11.8018C0.0146484 11.748 0.0390625 11.6992 0.0488281 11.6455C0.263672 10.2441 1.47949 9.11619 2.84668 9.05273C4.38477 8.97949 5.68848 9.91211 6.05469 11.3428C6.09375 11.499 6.12793 11.6504 6.16211 11.8018Z" fill="#333333"/>
</svg>
